{
  "accessors": [
    {
      "bufferView": 1,
      "componentType": 5126,
      "count": 20119,
      "max": [
        -88.087600708007812,
        -205.64360046386719,
        0.74089998006820679
      ],
      "min": [
        -151.39950561523438,
        -221.47520446777344,
        -2.3559000492095947
      ],
      "type": "VEC3"
    },
    {
      "bufferView": 1,
      "byteOffset": 241428,
      "componentType": 5126,
      "count": 20119,
      "max": [
        1,
        1,
        1
      ],
      "min": [
        -1,
        -1,
        -0.00020000798394903541
      ],
      "type": "VEC3"
    },
    {
      "bufferView": 0,
      "componentType": 5125,
      "count": 115344,
      "max": [
        20118
      ],
      "min": [
        0
      ],
      "type": "SCALAR"
    }
  ],
  "asset": {
    "extras": {
      "author": "kotbfg (https://sketchfab.com/kotbfg)",
      "license": "CC-BY-NC-4.0 (http://creativecommons.org/licenses/by-nc/4.0/)",
      "source": "https://sketchfab.com/models/274eb24afaaa4be6bb5da74c63e6d966",
      "title": "Doom 3 Floor 05"
    },
    "generator": "Sketchfab-3.18.7",
    "version": "2.0"
  },
  "bufferViews": [
    {
      "buffer": 0,
      "byteLength": 461376,
      "byteOffset": 0,
      "name": "floatBufferViews",
      "target": 34963
    },
    {
      "buffer": 0,
      "byteLength": 482856,
      "byteOffset": 461376,
      "byteStride": 12,
      "name": "floatBufferViews",
      "target": 34962
    }
  ],
  "buffers": [
    {
      "byteLength": 944232,
      "uri": "scene.bin"
    }
  ],
  "materials": [
    {
      "doubleSided": false,
      "name": "material_0",
      "pbrMetallicRoughness": {
        "baseColorFactor": [
          0.54266251860000003,
          0.54266251860000003,
          0.54266251860000003,
          1
        ],
        "metallicFactor": 1,
        "roughnessFactor": 0.37557647510000003
      }
    }
  ],
  "meshes": [
    {
      "primitives": [
        {
          "attributes": {
            "NORMAL": 1,
            "POSITION": 0
          },
          "indices": 2,
          "material": 0,
          "mode": 4
        }
      ]
    }
  ],
  "nodes": [
    {
      "children": [
        1
      ],
      "name": "RootNode (gltf orientation matrix)",
      "rotation": [
        -0.70710678118654746,
        -0,
        -0,
        0.70710678118654757
      ]
    },
    {
      "children": [
        2
      ],
      "name": "RootNode (model correction matrix)"
    },
    {
      "children": [
        3
      ],
      "name": "Floor_tile_05.obj.cleaner.materialmerger.gles"
    },
    {
      "mesh": 0,
      "name": ""
    }
  ],
  "scene": 0,
  "scenes": [
    {
      "name": "OSG_Scene",
      "nodes": [
        0
      ]
    }
  ]
}

