{
  "accessors": [
    {
      "bufferView": 2,
      "componentType": 5126,
      "count": 65532,
      "max": [
        75.93389892578125,
        116.76783752441406,
        87.671066284179688
      ],
      "min": [
        -87.671066284179688,
        35.999992370605469,
        -87.671066284179688
      ],
      "type": "VEC3"
    },
    {
      "bufferView": 2,
      "byteOffset": 786384,
      "componentType": 5126,
      "count": 65532,
      "max": [
        1,
        1,
        1
      ],
      "min": [
        -1,
        -1,
        -1
      ],
      "type": "VEC3"
    },
    {
      "bufferView": 3,
      "componentType": 5126,
      "count": 65532,
      "max": [
        1,
        1,
        1,
        1
      ],
      "min": [
        -1,
        -1,
        -1,
        1
      ],
      "type": "VEC4"
    },
    {
      "bufferView": 1,
      "componentType": 5126,
      "count": 65532,
      "max": [
        3.9901797771453857,
        0.990234375
      ],
      "min": [
        0.009765625,
        0.009765625
      ],
      "type": "VEC2"
    },
    {
      "bufferView": 0,
      "componentType": 5125,
      "count": 98394,
      "max": [
        65531
      ],
      "min": [
        0
      ],
      "type": "SCALAR"
    },
    {
      "bufferView": 2,
      "byteOffset": 1572768,
      "componentType": 5126,
      "count": 20127,
      "max": [
        87.671066284179688,
        116.76783752441406,
        60.068187713623047
      ],
      "min": [
        -60.068187713623047,
        35.999992370605469,
        -60.068187713623047
      ],
      "type": "VEC3"
    },
    {
      "bufferView": 2,
      "byteOffset": 1814292,
      "componentType": 5126,
      "count": 20127,
      "max": [
        1,
        1,
        1
      ],
      "min": [
        -1,
        -1,
        -1
      ],
      "type": "VEC3"
    },
    {
      "bufferView": 3,
      "byteOffset": 1048512,
      "componentType": 5126,
      "count": 20127,
      "max": [
        1,
        1,
        1,
        1
      ],
      "min": [
        -1,
        -1,
        -1,
        1
      ],
      "type": "VEC4"
    },
    {
      "bufferView": 1,
      "byteOffset": 524256,
      "componentType": 5126,
      "count": 20127,
      "max": [
        3.8995637893676758,
        0.990234375
      ],
      "min": [
        0.12655478715896606,
        0.009765625
      ],
      "type": "VEC2"
    },
    {
      "bufferView": 0,
      "byteOffset": 393576,
      "componentType": 5125,
      "count": 31158,
      "max": [
        20126
      ],
      "min": [
        0
      ],
      "type": "SCALAR"
    },
    {
      "bufferView": 2,
      "byteOffset": 2055816,
      "componentType": 5126,
      "count": 2574,
      "max": [
        20.669582366943359,
        38.042167663574219,
        20.480827331542969
      ],
      "min": [
        -20.669582366943359,
        0.61194992065429688,
        -20.480827331542969
      ],
      "type": "VEC3"
    },
    {
      "bufferView": 2,
      "byteOffset": 2086704,
      "componentType": 5126,
      "count": 2574,
      "max": [
        1,
        1,
        1
      ],
      "min": [
        -1,
        -1,
        -1
      ],
      "type": "VEC3"
    },
    {
      "bufferView": 3,
      "byteOffset": 1370544,
      "componentType": 5126,
      "count": 2574,
      "max": [
        1,
        1,
        1,
        1
      ],
      "min": [
        -1,
        -1,
        -1,
        1
      ],
      "type": "VEC4"
    },
    {
      "bufferView": 1,
      "byteOffset": 685272,
      "componentType": 5126,
      "count": 2574,
      "max": [
        0.990234375,
        1.9901802539825439
      ],
      "min": [
        0.009765625,
        1.009765625
      ],
      "type": "VEC2"
    },
    {
      "bufferView": 0,
      "byteOffset": 518208,
      "componentType": 5125,
      "count": 7128,
      "max": [
        2573
      ],
      "min": [
        0
      ],
      "type": "SCALAR"
    },
    {
      "bufferView": 2,
      "byteOffset": 2117592,
      "componentType": 5126,
      "count": 808,
      "max": [
        92.442855834960938,
        36.061660766601562,
        92.442825317382812
      ],
      "min": [
        -92.672767639160156,
        -0.8397674560546875,
        -92.442855834960938
      ],
      "type": "VEC3"
    },
    {
      "bufferView": 2,
      "byteOffset": 2127288,
      "componentType": 5126,
      "count": 808,
      "max": [
        0.99754494428634644,
        1,
        0.99754494428634644
      ],
      "min": [
        -0.99754494428634644,
        -0.99956470727920532,
        -0.99754500389099121
      ],
      "type": "VEC3"
    },
    {
      "bufferView": 3,
      "byteOffset": 1411728,
      "componentType": 5126,
      "count": 808,
      "max": [
        0.99977231025695801,
        0.7112165093421936,
        0.99936783313751221,
        1
      ],
      "min": [
        -0.99976599216461182,
        -0.70921647548675537,
        -0.99976575374603271,
        1
      ],
      "type": "VEC4"
    },
    {
      "bufferView": 1,
      "byteOffset": 705864,
      "componentType": 5126,
      "count": 808,
      "max": [
        1.990234375,
        1.4544382095336914
      ],
      "min": [
        1.009765625,
        1.009765625
      ],
      "type": "VEC2"
    },
    {
      "bufferView": 0,
      "byteOffset": 546720,
      "componentType": 5125,
      "count": 2160,
      "max": [
        807
      ],
      "min": [
        0
      ],
      "type": "SCALAR"
    },
    {
      "bufferView": 2,
      "byteOffset": 2136984,
      "componentType": 5126,
      "count": 5096,
      "max": [
        33.759269714355469,
        145.01487731933594,
        33.759281158447266
      ],
      "min": [
        -33.759269714355469,
        43.65875244140625,
        -33.759269714355469
      ],
      "type": "VEC3"
    },
    {
      "bufferView": 2,
      "byteOffset": 2198136,
      "componentType": 5126,
      "count": 5096,
      "max": [
        1,
        1,
        1
      ],
      "min": [
        -1,
        -1,
        -1
      ],
      "type": "VEC3"
    },
    {
      "bufferView": 3,
      "byteOffset": 1424656,
      "componentType": 5126,
      "count": 5096,
      "max": [
        0.99999994039535522,
        0.99242264032363892,
        0.99999994039535522,
        1
      ],
      "min": [
        -0.99999994039535522,
        -0.99242609739303589,
        -0.99999994039535522,
        -1
      ],
      "type": "VEC4"
    },
    {
      "bufferView": 1,
      "byteOffset": 712328,
      "componentType": 5126,
      "count": 5096,
      "max": [
        0.990234375,
        2.7837741374969482
      ],
      "min": [
        0.009765625,
        2.009765625
      ],
      "type": "VEC2"
    },
    {
      "bufferView": 0,
      "byteOffset": 555360,
      "componentType": 5125,
      "count": 11112,
      "max": [
        5095
      ],
      "min": [
        0
      ],
      "type": "SCALAR"
    }
  ],
  "asset": {
    "extras": {
      "author": "vargonia (https://sketchfab.com/vargonia)",
      "license": "CC-BY-4.0 (http://creativecommons.org/licenses/by/4.0/)",
      "source": "https://sketchfab.com/3d-models/gd56-mod1-a2-andrewicardi-23868b6523604897a1a8114ffe681520",
      "title": "GD56_MOD1_A2_AndrewIcardi"
    },
    "generator": "Sketchfab-7.57.0",
    "version": "2.0"
  },
  "bufferViews": [
    {
      "buffer": 0,
      "byteLength": 599808,
      "byteOffset": 0,
      "name": "floatBufferViews",
      "target": 34963
    },
    {
      "buffer": 0,
      "byteLength": 753096,
      "byteOffset": 599808,
      "byteStride": 8,
      "name": "floatBufferViews",
      "target": 34962
    },
    {
      "buffer": 0,
      "byteLength": 2259288,
      "byteOffset": 1352904,
      "byteStride": 12,
      "name": "floatBufferViews",
      "target": 34962
    },
    {
      "buffer": 0,
      "byteLength": 1506192,
      "byteOffset": 3612192,
      "byteStride": 16,
      "name": "floatBufferViews",
      "target": 34962
    }
  ],
  "buffers": [
    {
      "byteLength": 5118384,
      "uri": "scene.bin"
    }
  ],
  "images": [
    {
      "uri": "textures/Claws_baseColor.png"
    },
    {
      "uri": "textures/Claws_metallicRoughness.png"
    },
    {
      "uri": "textures/Claws_emissive.png"
    },
    {
      "uri": "textures/Claws_normal.png"
    },
    {
      "uri": "textures/BaseRing_baseColor.png"
    },
    {
      "uri": "textures/BaseRing_metallicRoughness.png"
    },
    {
      "uri": "textures/BaseRing_normal.png"
    },
    {
      "uri": "textures/CentrePiece_baseColor.png"
    },
    {
      "uri": "textures/CentrePiece_metallicRoughness.png"
    },
    {
      "uri": "textures/CentrePiece_normal.png"
    },
    {
      "uri": "textures/UpperPiece_baseColor.png"
    },
    {
      "uri": "textures/UpperPiece_metallicRoughness.png"
    },
    {
      "uri": "textures/UpperPiece_emissive.png"
    },
    {
      "uri": "textures/UpperPiece_normal.png"
    }
  ],
  "materials": [
    {
      "doubleSided": true,
      "emissiveFactor": [
        1,
        1,
        1
      ],
      "emissiveTexture": {
        "index": 2,
        "texCoord": 0
      },
      "name": "Claws",
      "normalTexture": {
        "index": 3,
        "scale": 1,
        "texCoord": 0
      },
      "pbrMetallicRoughness": {
        "baseColorFactor": [
          1,
          1,
          1,
          1
        ],
        "baseColorTexture": {
          "index": 0,
          "texCoord": 0
        },
        "metallicFactor": 1,
        "metallicRoughnessTexture": {
          "index": 1,
          "texCoord": 0
        },
        "roughnessFactor": 1
      }
    },
    {
      "doubleSided": true,
      "name": "BaseRing",
      "normalTexture": {
        "index": 6,
        "scale": 1,
        "texCoord": 0
      },
      "pbrMetallicRoughness": {
        "baseColorFactor": [
          1,
          1,
          1,
          1
        ],
        "baseColorTexture": {
          "index": 4,
          "texCoord": 0
        },
        "metallicFactor": 1,
        "metallicRoughnessTexture": {
          "index": 5,
          "texCoord": 0
        },
        "roughnessFactor": 1
      }
    },
    {
      "doubleSided": true,
      "name": "CentrePiece",
      "normalTexture": {
        "index": 9,
        "scale": 1,
        "texCoord": 0
      },
      "pbrMetallicRoughness": {
        "baseColorFactor": [
          1,
          1,
          1,
          1
        ],
        "baseColorTexture": {
          "index": 7,
          "texCoord": 0
        },
        "metallicFactor": 1,
        "metallicRoughnessTexture": {
          "index": 8,
          "texCoord": 0
        },
        "roughnessFactor": 1
      }
    },
    {
      "doubleSided": true,
      "emissiveFactor": [
        1,
        1,
        1
      ],
      "emissiveTexture": {
        "index": 12,
        "texCoord": 0
      },
      "name": "UpperPiece",
      "normalTexture": {
        "index": 13,
        "scale": 1,
        "texCoord": 0
      },
      "pbrMetallicRoughness": {
        "baseColorFactor": [
          1,
          1,
          1,
          1
        ],
        "baseColorTexture": {
          "index": 10,
          "texCoord": 0
        },
        "metallicFactor": 1,
        "metallicRoughnessTexture": {
          "index": 11,
          "texCoord": 0
        },
        "roughnessFactor": 1
      }
    }
  ],
  "meshes": [
    {
      "name": "MACHINE5_Claws_0",
      "primitives": [
        {
          "attributes": {
            "NORMAL": 1,
            "POSITION": 0,
            "TANGENT": 2,
            "TEXCOORD_0": 3
          },
          "indices": 4,
          "material": 0,
          "mode": 4
        }
      ]
    },
    {
      "name": "MACHINE5_Claws_0",
      "primitives": [
        {
          "attributes": {
            "NORMAL": 6,
            "POSITION": 5,
            "TANGENT": 7,
            "TEXCOORD_0": 8
          },
          "indices": 9,
          "material": 0,
          "mode": 4
        }
      ]
    },
    {
      "name": "MACHINE5_BaseRing_0",
      "primitives": [
        {
          "attributes": {
            "NORMAL": 11,
            "POSITION": 10,
            "TANGENT": 12,
            "TEXCOORD_0": 13
          },
          "indices": 14,
          "material": 1,
          "mode": 4
        }
      ]
    },
    {
      "name": "MACHINE5_CentrePiece_0",
      "primitives": [
        {
          "attributes": {
            "NORMAL": 16,
            "POSITION": 15,
            "TANGENT": 17,
            "TEXCOORD_0": 18
          },
          "indices": 19,
          "material": 2,
          "mode": 4
        }
      ]
    },
    {
      "name": "MACHINE5_UpperPiece_0",
      "primitives": [
        {
          "attributes": {
            "NORMAL": 21,
            "POSITION": 20,
            "TANGENT": 22,
            "TEXCOORD_0": 23
          },
          "indices": 24,
          "material": 3,
          "mode": 4
        }
      ]
    }
  ],
  "nodes": [
    {
      "children": [
        1
      ],
      "name": "RootNode (gltf orientation matrix)",
      "rotation": [
        -0.70710678118654746,
        -0,
        -0,
        0.70710678118654757
      ]
    },
    {
      "children": [
        2
      ],
      "name": "RootNode (model correction matrix)"
    },
    {
      "children": [
        3
      ],
      "matrix": [
        1,
        0,
        0,
        0,
        0,
        0,
        1,
        0,
        0,
        -1,
        0,
        0,
        0,
        0,
        0,
        1
      ],
      "name": "23b116d0ae7448c7af43c3e09fc4304e.fbx"
    },
    {
      "children": [
        4
      ],
      "name": "RootNode"
    },
    {
      "children": [
        5,
        6,
        7,
        8,
        9
      ],
      "name": "MACHINE5"
    },
    {
      "mesh": 0,
      "name": "MACHINE5_Claws_0"
    },
    {
      "mesh": 1,
      "name": "MACHINE5_Claws_0"
    },
    {
      "mesh": 2,
      "name": "MACHINE5_BaseRing_0"
    },
    {
      "mesh": 3,
      "name": "MACHINE5_CentrePiece_0"
    },
    {
      "mesh": 4,
      "name": "MACHINE5_UpperPiece_0"
    }
  ],
  "samplers": [
    {
      "magFilter": 9729,
      "minFilter": 9987,
      "wrapS": 10497,
      "wrapT": 10497
    }
  ],
  "scene": 0,
  "scenes": [
    {
      "name": "OSG_Scene",
      "nodes": [
        0
      ]
    }
  ],
  "textures": [
    {
      "sampler": 0,
      "source": 0
    },
    {
      "sampler": 0,
      "source": 1
    },
    {
      "sampler": 0,
      "source": 2
    },
    {
      "sampler": 0,
      "source": 3
    },
    {
      "sampler": 0,
      "source": 4
    },
    {
      "sampler": 0,
      "source": 5
    },
    {
      "sampler": 0,
      "source": 6
    },
    {
      "sampler": 0,
      "source": 7
    },
    {
      "sampler": 0,
      "source": 8
    },
    {
      "sampler": 0,
      "source": 9
    },
    {
      "sampler": 0,
      "source": 10
    },
    {
      "sampler": 0,
      "source": 11
    },
    {
      "sampler": 0,
      "source": 12
    },
    {
      "sampler": 0,
      "source": 13
    }
  ]
}

