{
  "accessors": [
    {
      "bufferView": 2,
      "componentType": 5126,
      "count": 834,
      "max": [
        85.073661804199219,
        68.888023376464844,
        77.717231750488281
      ],
      "min": [
        -85.073638916015625,
        -16.71929931640625,
        -75.892059326171875
      ],
      "type": "VEC3"
    },
    {
      "bufferView": 2,
      "byteOffset": 10008,
      "componentType": 5126,
      "count": 834,
      "max": [
        1,
        1,
        1
      ],
      "min": [
        -1,
        -1,
        -1
      ],
      "type": "VEC3"
    },
    {
      "bufferView": 3,
      "componentType": 5126,
      "count": 834,
      "max": [
        1,
        1,
        1,
        1
      ],
      "min": [
        -0.92962789535522461,
        -1,
        -0.89479964971542358,
        -1
      ],
      "type": "VEC4"
    },
    {
      "bufferView": 1,
      "componentType": 5126,
      "count": 834,
      "max": [
        0.78569179773330688,
        0.99097222089767456
      ],
      "min": [
        0.01687210239470005,
        0.0035710143856704235
      ],
      "type": "VEC2"
    },
    {
      "bufferView": 0,
      "componentType": 5125,
      "count": 1260,
      "max": [
        833
      ],
      "min": [
        0
      ],
      "type": "SCALAR"
    },
    {
      "bufferView": 2,
      "byteOffset": 20016,
      "componentType": 5126,
      "count": 7888,
      "max": [
        100.45107269287109,
        72.946395874023438,
        73.652694702148438
      ],
      "min": [
        -69.821342468261719,
        -20.777675628662109,
        -51.9591064453125
      ],
      "type": "VEC3"
    },
    {
      "bufferView": 2,
      "byteOffset": 114672,
      "componentType": 5126,
      "count": 7888,
      "max": [
        1,
        1,
        0.99999958276748657
      ],
      "min": [
        -0.96604323387145996,
        -1,
        -0.99999958276748657
      ],
      "type": "VEC3"
    },
    {
      "bufferView": 3,
      "byteOffset": 13344,
      "componentType": 5126,
      "count": 7888,
      "max": [
        0.9998200535774231,
        0.99982964992523193,
        0.99996298551559448,
        1
      ],
      "min": [
        -0.99655842781066895,
        -0.99982964992523193,
        -1,
        -1
      ],
      "type": "VEC4"
    },
    {
      "bufferView": 1,
      "byteOffset": 6672,
      "componentType": 5126,
      "count": 7888,
      "max": [
        0.9961133599281311,
        0.90616267919540405
      ],
      "min": [
        0.2094917893409729,
        0.65061658620834351
      ],
      "type": "VEC2"
    },
    {
      "bufferView": 0,
      "byteOffset": 5040,
      "componentType": 5125,
      "count": 12048,
      "max": [
        7887
      ],
      "min": [
        0
      ],
      "type": "SCALAR"
    },
    {
      "bufferView": 2,
      "byteOffset": 209328,
      "componentType": 5126,
      "count": 342,
      "max": [
        119.16930389404297,
        72.46990966796875,
        -30.271873474121094
      ],
      "min": [
        -119.16929626464844,
        -20.301185607910156,
        -82.825927734375
      ],
      "type": "VEC3"
    },
    {
      "bufferView": 2,
      "byteOffset": 213432,
      "componentType": 5126,
      "count": 342,
      "max": [
        1,
        1,
        1
      ],
      "min": [
        -1,
        -1,
        -0.0048925606533885002
      ],
      "type": "VEC3"
    },
    {
      "bufferView": 3,
      "byteOffset": 139552,
      "componentType": 5126,
      "count": 342,
      "max": [
        1,
        1,
        1,
        1
      ],
      "min": [
        -1,
        -1,
        -1,
        -1
      ],
      "type": "VEC4"
    },
    {
      "bufferView": 1,
      "byteOffset": 69776,
      "componentType": 5126,
      "count": 342,
      "max": [
        0.54354715347290039,
        0.57131791114807129
      ],
      "min": [
        0.18388304114341736,
        0.1458931565284729
      ],
      "type": "VEC2"
    },
    {
      "bufferView": 0,
      "byteOffset": 53232,
      "componentType": 5125,
      "count": 552,
      "max": [
        341
      ],
      "min": [
        0
      ],
      "type": "SCALAR"
    },
    {
      "bufferView": 2,
      "byteOffset": 217536,
      "componentType": 5126,
      "count": 112,
      "max": [
        23.505035400390625,
        78.253097534179688,
        82.825942993164062
      ],
      "min": [
        -23.505001068115234,
        -26.084369659423828,
        55.915950775146484
      ],
      "type": "VEC3"
    },
    {
      "bufferView": 2,
      "byteOffset": 218880,
      "componentType": 5126,
      "count": 112,
      "max": [
        0.98551231622695923,
        0.99670314788818359,
        0.97475022077560425
      ],
      "min": [
        -0.98551225662231445,
        -0.99670302867889404,
        -0.97475051879882812
      ],
      "type": "VEC3"
    },
    {
      "bufferView": 3,
      "byteOffset": 145024,
      "componentType": 5126,
      "count": 112,
      "max": [
        1,
        0.99301576614379883,
        0.49561172723770142,
        1
      ],
      "min": [
        -0.049817655235528946,
        -0.99301594495773315,
        -0.47875070571899414,
        -1
      ],
      "type": "VEC4"
    },
    {
      "bufferView": 1,
      "byteOffset": 72512,
      "componentType": 5126,
      "count": 112,
      "max": [
        0.3467869758605957,
        0.90797001123428345
      ],
      "min": [
        0.015270687639713287,
        0.68569612503051758
      ],
      "type": "VEC2"
    },
    {
      "bufferView": 0,
      "byteOffset": 55440,
      "componentType": 5125,
      "count": 168,
      "max": [
        111
      ],
      "min": [
        0
      ],
      "type": "SCALAR"
    },
    {
      "bufferView": 2,
      "byteOffset": 220224,
      "componentType": 5126,
      "count": 563,
      "max": [
        106.01621246337891,
        64.48260498046875,
        74.975006103515625
      ],
      "min": [
        -106.01620483398438,
        -12.313886642456055,
        -79.272262573242188
      ],
      "type": "VEC3"
    },
    {
      "bufferView": 2,
      "byteOffset": 226980,
      "componentType": 5126,
      "count": 563,
      "max": [
        1,
        1,
        1
      ],
      "min": [
        -1,
        -1,
        -1
      ],
      "type": "VEC3"
    },
    {
      "bufferView": 3,
      "byteOffset": 146816,
      "componentType": 5126,
      "count": 563,
      "max": [
        1,
        1,
        1,
        1
      ],
      "min": [
        -1,
        -1,
        -1,
        -1
      ],
      "type": "VEC4"
    },
    {
      "bufferView": 1,
      "byteOffset": 73408,
      "componentType": 5126,
      "count": 563,
      "max": [
        0.99098712205886841,
        0.98610442876815796
      ],
      "min": [
        0.012482825666666031,
        0.013930780813097954
      ],
      "type": "VEC2"
    },
    {
      "bufferView": 0,
      "byteOffset": 56112,
      "componentType": 5125,
      "count": 924,
      "max": [
        562
      ],
      "min": [
        0
      ],
      "type": "SCALAR"
    },
    {
      "bufferView": 2,
      "byteOffset": 233736,
      "componentType": 5126,
      "count": 260,
      "max": [
        31.111473083496094,
        45.064517974853516,
        46.335113525390625
      ],
      "min": [
        -31.111442565917969,
        7.1042051315307617,
        -74.738006591796875
      ],
      "type": "VEC3"
    },
    {
      "bufferView": 2,
      "byteOffset": 236856,
      "componentType": 5126,
      "count": 260,
      "max": [
        1,
        1,
        1
      ],
      "min": [
        -1,
        -1,
        -1
      ],
      "type": "VEC3"
    },
    {
      "bufferView": 3,
      "byteOffset": 155824,
      "componentType": 5126,
      "count": 260,
      "max": [
        1,
        1,
        1,
        1
      ],
      "min": [
        -2.8238287086423952e-06,
        -1,
        -0.75625401735305786,
        -1
      ],
      "type": "VEC4"
    },
    {
      "bufferView": 1,
      "byteOffset": 77912,
      "componentType": 5126,
      "count": 260,
      "max": [
        0.95108652114868164,
        0.64355695247650146
      ],
      "min": [
        0.50755023956298828,
        0.38761332631111145
      ],
      "type": "VEC2"
    },
    {
      "bufferView": 0,
      "byteOffset": 59808,
      "componentType": 5125,
      "count": 384,
      "max": [
        259
      ],
      "min": [
        0
      ],
      "type": "SCALAR"
    },
    {
      "bufferView": 2,
      "byteOffset": 239976,
      "componentType": 5126,
      "count": 404,
      "max": [
        78.430213928222656,
        46.664710998535156,
        51.017353057861328
      ],
      "min": [
        -78.430213928222656,
        5.5040149688720703,
        -82.825942993164062
      ],
      "type": "VEC3"
    },
    {
      "bufferView": 2,
      "byteOffset": 244824,
      "componentType": 5126,
      "count": 404,
      "max": [
        1,
        1,
        1
      ],
      "min": [
        -1,
        -1,
        -1
      ],
      "type": "VEC3"
    },
    {
      "bufferView": 3,
      "byteOffset": 159984,
      "componentType": 5126,
      "count": 404,
      "max": [
        1,
        1,
        1,
        1
      ],
      "min": [
        -1,
        -1,
        -1,
        -1
      ],
      "type": "VEC4"
    },
    {
      "bufferView": 1,
      "byteOffset": 79992,
      "componentType": 5126,
      "count": 404,
      "max": [
        0.98324054479598999,
        0.68230986595153809
      ],
      "min": [
        0.1232520192861557,
        0.0094277635216712952
      ],
      "type": "VEC2"
    },
    {
      "bufferView": 0,
      "byteOffset": 61344,
      "componentType": 5125,
      "count": 600,
      "max": [
        403
      ],
      "min": [
        0
      ],
      "type": "SCALAR"
    }
  ],
  "asset": {
    "extras": {
      "author": "clearsky5201314 (https://sketchfab.com/clearsky5201314)",
      "license": "CC-BY-4.0 (http://creativecommons.org/licenses/by/4.0/)",
      "source": "https://sketchfab.com/3d-models/sci-fi-door-c6a6ef337b6c4f51ba68c2f0708c9622",
      "title": "SCI-FI Door"
    },
    "generator": "Sketchfab-4.78.0",
    "version": "2.0"
  },
  "bufferViews": [
    {
      "buffer": 0,
      "byteLength": 63744,
      "byteOffset": 0,
      "name": "floatBufferViews",
      "target": 34963
    },
    {
      "buffer": 0,
      "byteLength": 83224,
      "byteOffset": 63744,
      "byteStride": 8,
      "name": "floatBufferViews",
      "target": 34962
    },
    {
      "buffer": 0,
      "byteLength": 249672,
      "byteOffset": 146968,
      "byteStride": 12,
      "name": "floatBufferViews",
      "target": 34962
    },
    {
      "buffer": 0,
      "byteLength": 166448,
      "byteOffset": 396640,
      "byteStride": 16,
      "name": "floatBufferViews",
      "target": 34962
    }
  ],
  "buffers": [
    {
      "byteLength": 563088,
      "uri": "scene.bin"
    }
  ],
  "images": [
    {
      "uri": "textures/Bottom_metallicRoughness.png"
    },
    {
      "uri": "textures/Bottom_normal.png"
    },
    {
      "uri": "textures/Bottom_baseColor.jpeg"
    },
    {
      "uri": "textures/DOOR_emissive.jpeg"
    },
    {
      "uri": "textures/DOOR_metallicRoughness.png"
    },
    {
      "uri": "textures/DOOR_normal.png"
    },
    {
      "uri": "textures/DOOR_baseColor.jpeg"
    },
    {
      "uri": "textures/LOCK1_emissive.jpeg"
    },
    {
      "uri": "textures/LOCK1_metallicRoughness.png"
    },
    {
      "uri": "textures/LOCK1_normal.png"
    },
    {
      "uri": "textures/LOCK1_baseColor.jpeg"
    },
    {
      "uri": "textures/emissive_emissive.jpeg"
    },
    {
      "uri": "textures/emissive_metallicRoughness.png"
    },
    {
      "uri": "textures/emissive_normal.png"
    },
    {
      "uri": "textures/emissive_baseColor.jpeg"
    },
    {
      "uri": "textures/pillar_emissive.jpeg"
    },
    {
      "uri": "textures/pillar_metallicRoughness.png"
    },
    {
      "uri": "textures/pillar_baseColor.png"
    },
    {
      "uri": "textures/pillar_normal.png"
    },
    {
      "uri": "textures/TUBE_metallicRoughness.png"
    },
    {
      "uri": "textures/TUBE_normal.png"
    },
    {
      "uri": "textures/TUBE_baseColor.jpeg"
    },
    {
      "uri": "textures/lock02_emissive.jpeg"
    },
    {
      "uri": "textures/lock02_metallicRoughness.png"
    },
    {
      "uri": "textures/lock02_normal.png"
    },
    {
      "uri": "textures/lock02_baseColor.jpeg"
    }
  ],
  "materials": [
    {
      "doubleSided": true,
      "emissiveFactor": [
        1,
        1,
        1
      ],
      "emissiveTexture": {
        "index": 7,
        "texCoord": 0
      },
      "name": "LOCK1",
      "normalTexture": {
        "index": 9,
        "scale": 1,
        "texCoord": 0
      },
      "occlusionTexture": {
        "index": 8,
        "strength": 1,
        "texCoord": 0
      },
      "pbrMetallicRoughness": {
        "baseColorFactor": [
          1,
          1,
          1,
          1
        ],
        "baseColorTexture": {
          "index": 10,
          "texCoord": 0
        },
        "metallicFactor": 1,
        "metallicRoughnessTexture": {
          "index": 8,
          "texCoord": 0
        },
        "roughnessFactor": 1
      }
    },
    {
      "doubleSided": true,
      "emissiveFactor": [
        0,
        0,
        0
      ],
      "name": "TUBE",
      "normalTexture": {
        "index": 20,
        "scale": 1,
        "texCoord": 0
      },
      "occlusionTexture": {
        "index": 19,
        "strength": 1,
        "texCoord": 0
      },
      "pbrMetallicRoughness": {
        "baseColorFactor": [
          1,
          1,
          1,
          1
        ],
        "baseColorTexture": {
          "index": 21,
          "texCoord": 0
        },
        "metallicFactor": 1,
        "metallicRoughnessTexture": {
          "index": 19,
          "texCoord": 0
        },
        "roughnessFactor": 1
      }
    },
    {
      "doubleSided": true,
      "emissiveFactor": [
        0,
        0,
        0
      ],
      "name": "Bottom",
      "normalTexture": {
        "index": 1,
        "scale": 1,
        "texCoord": 0
      },
      "occlusionTexture": {
        "index": 0,
        "strength": 1,
        "texCoord": 0
      },
      "pbrMetallicRoughness": {
        "baseColorFactor": [
          1,
          1,
          1,
          1
        ],
        "baseColorTexture": {
          "index": 2,
          "texCoord": 0
        },
        "metallicFactor": 1,
        "metallicRoughnessTexture": {
          "index": 0,
          "texCoord": 0
        },
        "roughnessFactor": 1
      }
    },
    {
      "doubleSided": true,
      "emissiveFactor": [
        1,
        1,
        1
      ],
      "emissiveTexture": {
        "index": 11,
        "texCoord": 0
      },
      "name": "emissive",
      "normalTexture": {
        "index": 13,
        "scale": 1,
        "texCoord": 0
      },
      "occlusionTexture": {
        "index": 12,
        "strength": 1,
        "texCoord": 0
      },
      "pbrMetallicRoughness": {
        "baseColorFactor": [
          1,
          1,
          1,
          1
        ],
        "baseColorTexture": {
          "index": 14,
          "texCoord": 0
        },
        "metallicFactor": 1,
        "metallicRoughnessTexture": {
          "index": 12,
          "texCoord": 0
        },
        "roughnessFactor": 1
      }
    },
    {
      "alphaMode": "BLEND",
      "doubleSided": true,
      "emissiveFactor": [
        1,
        1,
        1
      ],
      "emissiveTexture": {
        "index": 15,
        "texCoord": 0
      },
      "name": "pillar",
      "normalTexture": {
        "index": 18,
        "scale": 1,
        "texCoord": 0
      },
      "occlusionTexture": {
        "index": 16,
        "strength": 1,
        "texCoord": 0
      },
      "pbrMetallicRoughness": {
        "baseColorFactor": [
          1,
          1,
          1,
          1
        ],
        "baseColorTexture": {
          "index": 17,
          "texCoord": 0
        },
        "metallicFactor": 1,
        "metallicRoughnessTexture": {
          "index": 16,
          "texCoord": 0
        },
        "roughnessFactor": 1
      }
    },
    {
      "doubleSided": true,
      "emissiveFactor": [
        1,
        1,
        1
      ],
      "emissiveTexture": {
        "index": 22,
        "texCoord": 0
      },
      "name": "lock02",
      "normalTexture": {
        "index": 24,
        "scale": 1,
        "texCoord": 0
      },
      "occlusionTexture": {
        "index": 23,
        "strength": 1,
        "texCoord": 0
      },
      "pbrMetallicRoughness": {
        "baseColorFactor": [
          1,
          1,
          1,
          1
        ],
        "baseColorTexture": {
          "index": 25,
          "texCoord": 0
        },
        "metallicFactor": 1,
        "metallicRoughnessTexture": {
          "index": 23,
          "texCoord": 0
        },
        "roughnessFactor": 1
      }
    },
    {
      "doubleSided": true,
      "emissiveFactor": [
        1,
        1,
        1
      ],
      "emissiveTexture": {
        "index": 3,
        "texCoord": 0
      },
      "name": "DOOR",
      "normalTexture": {
        "index": 5,
        "scale": 1,
        "texCoord": 0
      },
      "occlusionTexture": {
        "index": 4,
        "strength": 1,
        "texCoord": 0
      },
      "pbrMetallicRoughness": {
        "baseColorFactor": [
          1,
          1,
          1,
          1
        ],
        "baseColorTexture": {
          "index": 6,
          "texCoord": 0
        },
        "metallicFactor": 1,
        "metallicRoughnessTexture": {
          "index": 4,
          "texCoord": 0
        },
        "roughnessFactor": 1
      }
    }
  ],
  "meshes": [
    {
      "name": "Object008_LOCK1_0",
      "primitives": [
        {
          "attributes": {
            "NORMAL": 1,
            "POSITION": 0,
            "TANGENT": 2,
            "TEXCOORD_0": 3
          },
          "indices": 4,
          "material": 0,
          "mode": 4
        }
      ]
    },
    {
      "name": "Object008_TUBE_0",
      "primitives": [
        {
          "attributes": {
            "NORMAL": 6,
            "POSITION": 5,
            "TANGENT": 7,
            "TEXCOORD_0": 8
          },
          "indices": 9,
          "material": 1,
          "mode": 4
        }
      ]
    },
    {
      "name": "Object008_Bottom_0",
      "primitives": [
        {
          "attributes": {
            "NORMAL": 11,
            "POSITION": 10,
            "TANGENT": 12,
            "TEXCOORD_0": 13
          },
          "indices": 14,
          "material": 2,
          "mode": 4
        }
      ]
    },
    {
      "name": "Object008_emissive_0",
      "primitives": [
        {
          "attributes": {
            "NORMAL": 16,
            "POSITION": 15,
            "TANGENT": 17,
            "TEXCOORD_0": 18
          },
          "indices": 19,
          "material": 3,
          "mode": 4
        }
      ]
    },
    {
      "name": "Object008_pillar_0",
      "primitives": [
        {
          "attributes": {
            "NORMAL": 21,
            "POSITION": 20,
            "TANGENT": 22,
            "TEXCOORD_0": 23
          },
          "indices": 24,
          "material": 4,
          "mode": 4
        }
      ]
    },
    {
      "name": "Object008_lock02_0",
      "primitives": [
        {
          "attributes": {
            "NORMAL": 26,
            "POSITION": 25,
            "TANGENT": 27,
            "TEXCOORD_0": 28
          },
          "indices": 29,
          "material": 5,
          "mode": 4
        }
      ]
    },
    {
      "name": "Object008_DOOR_0",
      "primitives": [
        {
          "attributes": {
            "NORMAL": 31,
            "POSITION": 30,
            "TANGENT": 32,
            "TEXCOORD_0": 33
          },
          "indices": 34,
          "material": 6,
          "mode": 4
        }
      ]
    }
  ],
  "nodes": [
    {
      "children": [
        1
      ],
      "name": "RootNode (gltf orientation matrix)",
      "rotation": [
        -0.70710678118654746,
        -0,
        -0,
        0.70710678118654757
      ]
    },
    {
      "children": [
        2
      ],
      "name": "RootNode (model correction matrix)"
    },
    {
      "children": [
        3
      ],
      "matrix": [
        1,
        0,
        0,
        0,
        0,
        0,
        1,
        0,
        0,
        -1,
        0,
        0,
        0,
        0,
        0,
        1
      ],
      "name": "LOW-Symmetry.FBX"
    },
    {
      "children": [
        4
      ],
      "name": "RootNode"
    },
    {
      "children": [
        5
      ],
      "matrix": [
        0.9278709888458252,
        0,
        0,
        0,
        0,
        1.7292100855835697e-16,
        -0.77876698970794678,
        0,
        0,
        0.9278709888458252,
        2.0602874713966939e-16,
        0,
        0,
        0,
        -20.313631057739258,
        1
      ],
      "name": "Object008"
    },
    {
      "children": [
        6,
        7,
        8,
        9,
        10,
        11,
        12
      ],
      "matrix": [
        1,
        0,
        -0,
        0,
        0,
        1,
        0,
        0,
        0,
        0,
        1,
        0,
        0,
        -26.084362030029297,
        82.825927734375,
        1
      ],
      "name": ""
    },
    {
      "mesh": 0,
      "name": "Object008_LOCK1_0"
    },
    {
      "mesh": 1,
      "name": "Object008_TUBE_0"
    },
    {
      "mesh": 2,
      "name": "Object008_Bottom_0"
    },
    {
      "mesh": 3,
      "name": "Object008_emissive_0"
    },
    {
      "mesh": 4,
      "name": "Object008_pillar_0"
    },
    {
      "mesh": 5,
      "name": "Object008_lock02_0"
    },
    {
      "mesh": 6,
      "name": "Object008_DOOR_0"
    }
  ],
  "samplers": [
    {
      "magFilter": 9729,
      "minFilter": 9987,
      "wrapS": 10497,
      "wrapT": 10497
    }
  ],
  "scene": 0,
  "scenes": [
    {
      "name": "OSG_Scene",
      "nodes": [
        0
      ]
    }
  ],
  "textures": [
    {
      "sampler": 0,
      "source": 0
    },
    {
      "sampler": 0,
      "source": 1
    },
    {
      "sampler": 0,
      "source": 2
    },
    {
      "sampler": 0,
      "source": 3
    },
    {
      "sampler": 0,
      "source": 4
    },
    {
      "sampler": 0,
      "source": 5
    },
    {
      "sampler": 0,
      "source": 6
    },
    {
      "sampler": 0,
      "source": 7
    },
    {
      "sampler": 0,
      "source": 8
    },
    {
      "sampler": 0,
      "source": 9
    },
    {
      "sampler": 0,
      "source": 10
    },
    {
      "sampler": 0,
      "source": 11
    },
    {
      "sampler": 0,
      "source": 12
    },
    {
      "sampler": 0,
      "source": 13
    },
    {
      "sampler": 0,
      "source": 14
    },
    {
      "sampler": 0,
      "source": 15
    },
    {
      "sampler": 0,
      "source": 16
    },
    {
      "sampler": 0,
      "source": 17
    },
    {
      "sampler": 0,
      "source": 18
    },
    {
      "sampler": 0,
      "source": 19
    },
    {
      "sampler": 0,
      "source": 20
    },
    {
      "sampler": 0,
      "source": 21
    },
    {
      "sampler": 0,
      "source": 22
    },
    {
      "sampler": 0,
      "source": 23
    },
    {
      "sampler": 0,
      "source": 24
    },
    {
      "sampler": 0,
      "source": 25
    }
  ]
}

